HIERARCHY
ROOT Hips
{
 OFFSET 0.000000 0.000000 0.000000
 CHANNELS 6 Xposition Yposition Zposition Yrotation Xrotation Zrotation
 JOINT Chest
 {
  OFFSET 0.000000 9.585900 0.002600
  CHANNELS 3 Yrotation Xrotation Zrotation
  JOINT Chest2
  {
   OFFSET 0.000000 9.601200 -0.005300
   CHANNELS 3 Yrotation Xrotation Zrotation
   JOINT Chest3
   {
    OFFSET 0.000000 9.561800 0.000000
    CHANNELS 3 Yrotation Xrotation Zrotation
    JOINT Chest4
    {
     OFFSET 0.000000 9.552100 0.000000
     CHANNELS 3 Yrotation Xrotation Zrotation
     JOINT Neck
     {
      OFFSET 0.000000 14.453000 0.000000
      CHANNELS 3 Yrotation Xrotation Zrotation
      JOINT Head
      {
       OFFSET 0.000000 8.936500 -0.011300
       CHANNELS 3 Yrotation Xrotation Zrotation
       End Site
       {
        OFFSET 0.000000 17.073600 -0.006000
       }
      }
     }
     JOINT RightCollar
     {
      OFFSET -2.921100 9.558500 0.000000
      CHANNELS 3 Yrotation Xrotation Zrotation
      JOINT RightShoulder
      {
       OFFSET -13.519700 0.000000 0.000000
       CHANNELS 3 Yrotation Xrotation Zrotation
       JOINT RightElbow
       {
        OFFSET 0.000000 -29.696600 0.000000
        CHANNELS 3 Yrotation Xrotation Zrotation
        JOINT RightWrist
        {
         OFFSET 0.000000 -24.004700 0.000000
         CHANNELS 3 Yrotation Xrotation Zrotation
         End Site
         {
          OFFSET 0.000000 -17.728500 0.000000
         }
        }
       }
      }
     }
     JOINT LeftCollar
     {
      OFFSET 2.921100 9.558500 0.000000
      CHANNELS 3 Yrotation Xrotation Zrotation
      JOINT LeftShoulder
      {
       OFFSET 13.519700 0.000000 0.000000
       CHANNELS 3 Yrotation Xrotation Zrotation
       JOINT LeftElbow
       {
        OFFSET 0.000000 -29.696600 0.000000
        CHANNELS 3 Yrotation Xrotation Zrotation
        JOINT LeftWrist
        {
         OFFSET 0.000000 -24.004700 0.000000
         CHANNELS 3 Yrotation Xrotation Zrotation
         End Site
         {
          OFFSET 0.000000 -17.728500 0.000000
         }
        }
       }
      }
     }
    }
   }
  }
 }
 JOINT RightHip
 {
  OFFSET -7.771700 -0.012900 -0.001300
  CHANNELS 3 Yrotation Xrotation Zrotation
  JOINT RightKnee
  {
   OFFSET 0.000000 -40.869800 0.001200
   CHANNELS 3 Yrotation Xrotation Zrotation
   JOINT RightAnkle
   {
    OFFSET 0.000000 -39.717900 0.002100
    CHANNELS 3 Yrotation Xrotation Zrotation
    JOINT RightToe
    {
     OFFSET 0.000000 -4.965400 11.033500
     CHANNELS 3 Yrotation Xrotation Zrotation
     End Site
     {
      OFFSET 0.000000 -1.423100 5.872300
     }
    }
   }
  }
 }
 JOINT LeftHip
 {
  OFFSET 7.771700 -0.012900 -0.001300
  CHANNELS 3 Yrotation Xrotation Zrotation
  JOINT LeftKnee
  {
   OFFSET 0.000000 -40.869800 0.001200
   CHANNELS 3 Yrotation Xrotation Zrotation
   JOINT LeftAnkle
   {
    OFFSET 0.000000 -39.717900 0.002100
    CHANNELS 3 Yrotation Xrotation Zrotation
    JOINT LeftToe
    {
     OFFSET 0.000000 -4.965400 11.033500
     CHANNELS 3 Yrotation Xrotation Zrotation
     End Site
     {
      OFFSET 0.000000 -1.423100 5.872300
     }
    }
   }
  }
 }
}
MOTION
Frames: 5
Frame Time: 0.008333
0.000000 85.388000 0.000000 0.000000 -5.767877 0.000000 0.000000 11.653817 0.000000 0.000000 -5.885947 0.000000 0.000000 -0.000000 0.000000 0.000000 -0.000000 0.000000 0.000000 12.528835 0.000000 0.000000 0.711642 0.000000 0.000000 -0.000000 0.000000 0.000000 0.000000 -90.000000 0.000000 -2.309062 0.000000 0.000000 2.309062 0.000000 0.000000 -0.000000 0.000000 0.000000 -0.000000 90.000000 0.000000 -2.309062 0.000000 0.000000 2.309062 0.000000 0.000000 8.520406 0.000000 0.000000 1.905762 0.000000 -0.000000 -4.658285 0.000000 0.000000 -0.000000 0.000000 0.000000 8.520406 0.000000 0.000000 1.905762 0.000000 -0.000000 -4.658285 0.000000 0.000000 -0.000000 0.000000
-24.329647 50.742356 8.113214 163.046946 -7.739761 -0.023001 3.230204 6.683185 1.074050 0.129648 0.294471 -0.000755 0.233801 0.519364 0.008973 2.889813 6.371843 0.265841 2.367551 17.512051 -0.725354 4.609256 -3.211065 -2.130217 3.339843 6.602047 0.666376 -11.190290 -15.018867 -10.576048 -121.186381 -75.269723 147.336601 -1.661721 0.569789 -29.205910 -4.647892 3.308586 -0.828254 24.042039 -7.013614 4.320033 106.369618 -70.807696 -135.963768 2.785450 3.221421 13.060580 -4.271101 -72.874916 0.720271 -115.678186 83.991166 -113.935312 -2.742351 -13.422658 -0.873803 -0.330602 0.747269 -0.146229 -12.876773 -75.705867 29.128053 99.075347 76.629016 94.892767 -17.835637 -16.252019 1.127003 -0.242378 -1.096940 -0.120164
-24.328948 50.741859 8.111795 163.035594 -7.747887 -0.034263 3.235626 6.687029 1.075341 0.133376 0.296338 0.004707 0.233946 0.519568 0.008821 2.887380 6.371810 0.256069 2.375716 17.504449 -0.740902 4.627255 -3.216801 -2.129315 3.336422 6.596173 0.651533 -11.184847 -15.002581 -10.549382 -121.193457 -75.275874 147.354618 -1.652776 0.581991 -29.186667 -4.639438 3.316547 -0.829177 24.150714 -6.986384 4.287866 106.361596 -70.814792 -135.976680 2.775321 3.226953 13.100318 -4.292011 -72.865610 0.760204 -115.642991 83.986473 -113.906142 -2.735764 -13.422152 -0.864459 -0.337550 0.747334 -0.150717 -12.895003 -75.698765 29.156339 99.097420 76.636639 94.920648 -17.798263 -16.262822 1.121285 -0.261280 -1.090079 -0.118788
-24.331205 50.741423 8.109869 163.022323 -7.752025 -0.030924 3.235261 6.686690 1.048730 0.139413 0.298915 0.016386 0.229165 0.517695 -0.004344 2.895784 6.373067 0.244735 2.392940 17.501333 -0.714572 4.651629 -3.240987 -2.173702 3.345847 6.595162 0.683243 -11.183453 -14.996000 -10.546011 -121.205211 -75.283857 147.373143 -1.639475 0.602590 -29.147496 -4.630034 3.325666 -0.804305 24.206918 -6.979252 4.273087 106.369644 -70.807342 -135.950156 2.764449 3.236930 13.123319 -4.264357 -72.860709 0.747663 -115.628854 83.986404 -113.895937 -2.733851 -13.429844 -0.861796 -0.342130 0.755123 -0.150438 -12.860425 -75.698190 29.131760 99.118334 76.647157 94.950858 -17.789947 -16.272264 1.116633 -0.185764 -1.084275 -0.107371
-24.333046 50.741269 8.107444 163.006229 -7.757523 -0.032862 3.247619 6.690020 1.042536 0.132803 0.296360 0.000846 0.235193 0.520049 0.007316 2.899915 6.373087 0.239179 2.398663 17.496038 -0.715735 4.655903 -3.241052 -2.159874 3.340324 6.595788 0.686019 -11.176961 -14.981034 -10.531771 -121.224444 -75.285664 147.399188 -1.616926 0.632413 -29.088386 -4.626168 3.330234 -0.788318 24.264195 -6.965238 4.251053 106.404131 -70.803377 -135.970591 2.759894 3.240213 13.147242 -4.249337 -72.859271 0.760197 -115.618263 83.976534 -113.887858 -2.753218 -13.423851 -0.864951 -0.324812 0.748935 -0.140426 -12.839124 -75.695873 29.124997 99.149413 76.664908 94.992469 -17.772781 -16.286049 1.114677 -0.243787 -1.076875 -0.112085
